<svg width="14" height="14" viewBox="0 0 14 14" fill="none" xmlns="http://www.w3.org/2000/svg">
<path fill-rule="evenodd" clip-rule="evenodd" d="M7.01067 0.6C6.21067 0.6 5.74401 1.13333 5.61067 1.4C4.54401 3.93333 2.37067 9.48 2.21067 11.4C2.05067 13.32 3.74401 13.4 4.61067 13.2L7.01067 12L9.41067 13.2C10.2773 13.4 11.9707 13.32 11.8107 11.4C11.6507 9.48 9.47734 3.93333 8.41067 1.4C8.27734 1.13333 7.81067 0.6 7.01067 0.6Z" fill="#38BBDA"/>
<path d="M11.4547 7.58832L10.5563 5.04268C10.4743 4.81046 10.6201 4.56045 10.866 4.54791C11.6672 4.50708 12.8062 4.68099 13.2 5.59998C13.6038 6.54215 12.7149 7.36166 11.9859 7.79658C11.7844 7.91682 11.5328 7.80962 11.4547 7.58832Z" fill="#38BBDA"/>
<path d="M2.44635 7.58832L3.34481 5.04268C3.42676 4.81046 3.28101 4.56045 3.03507 4.54791C2.23383 4.50708 1.0949 4.68099 0.701053 5.59998C0.297265 6.54215 1.18614 7.36166 1.91513 7.79658C2.11667 7.91682 2.36824 7.80962 2.44635 7.58832Z" fill="#38BBDA"/>
</svg>
