<svg width="1046" height="351" viewBox="0 0 1046 351" fill="none" xmlns="http://www.w3.org/2000/svg">
<path d="M13.0071 301.435C10.5738 303.578 10.271 307.278 12.4585 309.67C36.5863 336.061 72.0775 350.64 113.4 350.64C176.4 350.64 221.76 311.04 221.76 255.96V78C221.76 74.6863 219.074 72 215.76 72H167.37C164.802 72 162.72 74.0819 162.72 76.6499V89.4278C162.72 89.8033 162.242 89.9626 162.017 89.6622V89.6622C162.006 89.6474 161.994 89.6335 161.98 89.6205C148.658 76.3123 125.988 68.4 101.52 68.4C43.56 68.4 0 110.52 0 167.04C0 224.28 42.48 264.6 101.88 264.6C128.766 264.6 150.297 256.39 161.853 242.458C161.947 242.345 162.085 242.28 162.231 242.28V242.28C162.501 242.28 162.72 242.499 162.72 242.769V255.96C162.72 280.8 142.2 298.44 113.4 298.44C88.9285 298.44 72.8853 291.26 54.8059 272.541C52.5232 270.178 48.776 269.947 46.3096 272.118L13.0071 301.435ZM159.48 176.4C159.48 186.12 154.8 194.76 145.8 201.6C136.8 208.44 125.64 211.68 112.32 211.68C81.72 211.68 62.28 194.4 62.28 167.04C62.28 140.04 82.08 122.4 112.68 122.4C138.24 122.4 159.48 138.96 159.48 157.68V176.4Z" fill="white"/>
<path d="M244.833 167.4C243.753 225.36 292.713 270.72 355.713 269.64C418.713 270.72 467.673 225.36 466.593 167.4C467.673 109.44 418.713 64.08 355.713 65.16C292.713 64.08 243.753 109.44 244.833 167.4ZM404.313 167.4C404.313 195.12 384.873 215.28 355.713 215.28C326.553 215.28 307.113 195.12 307.113 167.4C307.113 138.96 326.553 119.52 355.713 119.52C384.873 119.52 404.313 139.68 404.313 167.4Z" fill="white"/>
<path d="M444.792 343.8C444.792 347.114 447.478 349.8 450.792 349.8H481.872C535.512 349.8 557.832 328.2 557.832 268.2V78C557.832 74.6863 555.146 72 551.832 72H501.552C498.238 72 495.552 74.6863 495.552 78V267.48C495.552 286.8 489.792 292.2 476.472 292.2H450.792C447.478 292.2 444.792 294.886 444.792 298.2V343.8Z" fill="white"/>
<path d="M582.623 167.76C582.623 229.32 625.823 269.64 692.423 269.64C729.185 269.64 757.257 259.341 782.422 237.526C784.868 235.405 785.053 231.703 782.924 229.264L756.282 198.736C754.044 196.172 750.13 195.995 747.554 198.219C730.318 213.1 712.754 220.68 694.583 220.68C667.474 220.68 649.912 210.264 645.27 192.545C644.38 189.15 647.194 186.12 650.704 186.12H791.903C795.217 186.12 797.903 183.434 797.903 180.12V167.76C797.903 109.8 752.903 65.16 690.623 65.16C629.783 64.08 581.543 110.52 582.623 167.76ZM651.355 145.08C647.741 145.08 644.904 141.872 646.068 138.45C651.516 122.437 668.76 112.32 691.343 112.32C714.656 112.32 730.887 121.952 736.014 138.452C737.083 141.893 734.245 145.08 730.641 145.08H651.355Z" fill="white"/>
<path d="M824.143 256.8C824.143 260.114 826.829 262.8 830.143 262.8H880.423C883.737 262.8 886.423 260.114 886.423 256.8V215.594C886.423 213.8 887.226 212.1 888.612 210.96L918.588 186.313C918.74 186.188 918.931 186.12 919.127 186.12V186.12C919.389 186.12 919.637 186.241 919.798 186.449L977.142 260.474C978.278 261.941 980.029 262.8 981.885 262.8H1039.81C1044.85 262.8 1047.65 256.948 1044.47 253.025L964.262 153.945C962.215 151.416 962.556 147.717 965.031 145.605L1038.92 82.5645C1043.16 78.9446 1040.6 72 1035.03 72H968.25C966.789 72 965.378 72.5328 964.283 73.4986L887.291 141.349C887.196 141.434 887.073 141.48 886.946 141.48V141.48C886.657 141.48 886.423 141.246 886.423 140.957V6C886.423 2.68629 883.737 0 880.423 0H830.143C826.829 0 824.143 2.68629 824.143 6V256.8Z" fill="white"/>
</svg>
