<svg width="12" height="12" viewBox="0 0 12 12" fill="none" xmlns="http://www.w3.org/2000/svg">
<path d="M7.2 4.8H10.8C11.1183 4.8 11.4235 4.92643 11.6485 5.15147C11.8736 5.37652 12 5.68174 12 6C12 6.31826 11.8736 6.62348 11.6485 6.84853C11.4235 7.07357 11.1183 7.2 10.8 7.2H7.2V10.8C7.2 11.1183 7.07357 11.4235 6.84853 11.6485C6.62349 11.8736 6.31826 12 6 12C5.68174 12 5.37652 11.8736 5.15147 11.6485C4.92643 11.4235 4.8 11.1183 4.8 10.8V7.2H1.2C0.88174 7.2 0.576516 7.07357 0.351472 6.84853C0.126428 6.62348 0 6.31826 0 6C0 5.68174 0.126428 5.37652 0.351472 5.15147C0.576516 4.92643 0.88174 4.8 1.2 4.8H4.8V1.2C4.8 0.88174 4.92643 0.576516 5.15147 0.351472C5.37652 0.126428 5.68174 0 6 0C6.31826 0 6.62349 0.126428 6.84853 0.351472C7.07357 0.576516 7.2 0.88174 7.2 1.2V4.8Z" fill="#0281A0"/>
</svg>
