<svg width="13" height="12" viewBox="0 0 13 12" fill="none" xmlns="http://www.w3.org/2000/svg">
<path d="M11.7141 5.28501L6.71409 0.285014C6.61899 0.193973 6.50684 0.122608 6.38409 0.0750135C6.14063 -0.0250045 5.86755 -0.0250045 5.62409 0.0750135C5.50134 0.122608 5.3892 0.193973 5.29409 0.285014L0.294092 5.28501C0.200853 5.37825 0.126893 5.48894 0.0764322 5.61076C0.0259719 5.73259 0 5.86315 0 5.99501C0 6.26132 0.105788 6.51671 0.294092 6.70501C0.482395 6.89332 0.73779 6.9991 1.00409 6.9991C1.27039 6.9991 1.52579 6.89332 1.71409 6.70501L5.00409 3.40501V10.995C5.00409 11.2602 5.10945 11.5146 5.29699 11.7021C5.48452 11.8897 5.73888 11.995 6.00409 11.995C6.26931 11.995 6.52366 11.8897 6.7112 11.7021C6.89873 11.5146 7.00409 11.2602 7.00409 10.995V3.40501L10.2941 6.70501C10.3871 6.79874 10.4977 6.87314 10.6195 6.9239C10.7414 6.97467 10.8721 7.00081 11.0041 7.00081C11.1361 7.00081 11.2668 6.97467 11.3887 6.9239C11.5105 6.87314 11.6211 6.79874 11.7141 6.70501C11.8078 6.61205 11.8822 6.50145 11.933 6.37959C11.9838 6.25773 12.0099 6.12703 12.0099 5.99501C12.0099 5.863 11.9838 5.7323 11.933 5.61044C11.8822 5.48858 11.8078 5.37798 11.7141 5.28501Z" fill="#0281A0"/>
</svg>
